<?xml version="1.0" encoding="utf-8"?>
<!-- Generator: Adobe Illustrator 28.3.0, SVG Export Plug-In . SVG Version: 6.00 Build 0)  -->
<svg version="1.1" id="Layer_1" width="30" xmlns="http://www.w3.org/2000/svg" xmlns:xlink="http://www.w3.org/1999/xlink" x="0px" y="0px"
	 viewBox="0 0 131.5 131.5" style="enable-background:new 0 0 131.5 131.5;" xml:space="preserve">
<style type="text/css">
	.st0{fill:#313131;}
	.st1{fill:#9B9B9B;}
</style>
<g>
	<circle class="st0" cx="65.7" cy="65.7" r="65.7"/>
	<path class="st1" d="M89.9,81.7c2.3,2.3,2.3,6,0,8.3c-2.3,2.3-6,2.3-8.3,0L65.7,74L49.8,89.9c-2.3,2.3-6,2.3-8.2,0
		c-2.3-2.3-2.3-6,0-8.3l15.9-15.9L41.5,49.8c-2.3-2.3-2.3-6,0-8.2c1.1-1.1,2.6-1.7,4.1-1.7c1.5,0,3,0.6,4.1,1.7l15.9,15.9l15.9-15.9
		c2.3-2.3,6-2.3,8.3,0c1.1,1.1,1.7,2.6,1.7,4.1c0,1.5-0.6,3-1.7,4.1L74,65.7L89.9,81.7z"/>
</g>
</svg>
