<svg width="258" height="80" viewBox="0 0 258 80" fill="none" xmlns="http://www.w3.org/2000/svg">
<path d="M245.768 72.5088V53.5838H250.857V56.8858H251.054C251.399 55.7112 251.978 54.8241 252.791 54.2245C253.604 53.6167 254.541 53.3127 255.6 53.3127C255.863 53.3127 256.147 53.3292 256.451 53.362C256.755 53.3949 257.021 53.4401 257.251 53.4976V58.1549C257.005 58.081 256.664 58.0153 256.229 57.9578C255.793 57.9003 255.395 57.8715 255.034 57.8715C254.262 57.8715 253.572 58.0399 252.964 58.3767C252.364 58.7052 251.888 59.1652 251.535 59.7566C251.19 60.348 251.017 61.0298 251.017 61.8019V72.5088H245.768Z" fill="white"/>
<path d="M233.657 72.8785C231.71 72.8785 230.035 72.4842 228.63 71.6957C227.234 70.8989 226.158 69.7736 225.402 68.3197C224.646 66.8576 224.268 65.1286 224.268 63.1326C224.268 61.1859 224.646 59.4774 225.402 58.0071C226.158 56.5367 227.221 55.3909 228.593 54.5695C229.973 53.7481 231.591 53.3374 233.447 53.3374C234.696 53.3374 235.858 53.5386 236.934 53.9411C238.019 54.3354 238.963 54.9309 239.768 55.7277C240.581 56.5244 241.214 57.5265 241.666 58.734C242.117 59.9332 242.343 61.3378 242.343 62.9478V64.3893H226.363V61.1366H237.402C237.402 60.3809 237.238 59.7115 236.91 59.1283C236.581 58.5451 236.125 58.0892 235.542 57.7606C234.967 57.4239 234.298 57.2555 233.534 57.2555C232.737 57.2555 232.031 57.4403 231.414 57.8099C230.807 58.1713 230.33 58.6601 229.985 59.2761C229.64 59.884 229.464 60.5616 229.455 61.3091V64.4016C229.455 65.338 229.628 66.1471 229.973 66.8289C230.326 67.5106 230.823 68.0363 231.464 68.406C232.104 68.7756 232.864 68.9604 233.743 68.9604C234.326 68.9604 234.86 68.8783 235.345 68.714C235.83 68.5497 236.244 68.3033 236.589 67.9747C236.934 67.6462 237.197 67.2437 237.378 66.7673L242.232 67.0876C241.986 68.254 241.481 69.2725 240.717 70.1432C239.961 71.0057 238.984 71.6792 237.784 72.1639C236.593 72.6403 235.218 72.8785 233.657 72.8785Z" fill="white"/>
<path d="M211.602 80C209.902 80 208.444 79.7659 207.228 79.2977C206.021 78.8377 205.06 78.2094 204.345 77.4126C203.631 76.6159 203.167 75.7205 202.953 74.7266L207.808 74.0736C207.955 74.4515 208.19 74.8047 208.51 75.1332C208.83 75.4618 209.253 75.7246 209.779 75.9218C210.313 76.1271 210.962 76.2298 211.726 76.2298C212.867 76.2298 213.808 75.9505 214.547 75.392C215.295 74.8416 215.668 73.9176 215.668 72.6197V69.1575H215.447C215.217 69.6832 214.872 70.1802 214.412 70.6484C213.952 71.1166 213.36 71.4985 212.637 71.7942C211.915 72.0899 211.052 72.2378 210.05 72.2378C208.629 72.2378 207.335 71.9092 206.169 71.2521C205.011 70.5868 204.087 69.5723 203.397 68.2088C202.715 66.8371 202.374 65.1039 202.374 63.0094C202.374 60.8655 202.723 59.0749 203.421 57.6374C204.119 56.2 205.048 55.1239 206.206 54.4093C207.372 53.6947 208.65 53.3374 210.038 53.3374C211.097 53.3374 211.984 53.5181 212.699 53.8795C213.414 54.2327 213.989 54.6763 214.424 55.2102C214.868 55.7359 215.208 56.2534 215.447 56.7626H215.644V53.5838H220.856V72.6937C220.856 74.3036 220.461 75.6507 219.673 76.735C218.884 77.8192 217.792 78.6324 216.395 79.1745C215.007 79.7248 213.41 80 211.602 80ZM211.713 68.2951C212.559 68.2951 213.274 68.0856 213.857 67.6667C214.449 67.2396 214.9 66.6317 215.212 65.8432C215.533 65.0464 215.693 64.0936 215.693 62.9847C215.693 61.8758 215.537 60.9148 215.225 60.1016C214.913 59.2802 214.461 58.6436 213.87 58.1919C213.278 57.7401 212.559 57.5142 211.713 57.5142C210.851 57.5142 210.124 57.7483 209.533 58.2165C208.941 58.6765 208.493 59.3172 208.19 60.1386C207.886 60.96 207.734 61.9087 207.734 62.9847C207.734 64.0772 207.886 65.0218 208.19 65.8186C208.502 66.6071 208.949 67.219 209.533 67.6544C210.124 68.0815 210.851 68.2951 211.713 68.2951Z" fill="white"/>
<path d="M188.346 72.8662C187.139 72.8662 186.063 72.6567 185.118 72.2378C184.174 71.8107 183.426 71.1823 182.876 70.3527C182.334 69.5149 182.063 68.4717 182.063 67.2232C182.063 66.1718 182.256 65.2888 182.642 64.5741C183.028 63.8595 183.554 63.2845 184.219 62.8492C184.884 62.4139 185.64 62.0853 186.486 61.8635C187.34 61.6417 188.236 61.4857 189.172 61.3953C190.273 61.2803 191.16 61.1735 191.833 61.075C192.507 60.9682 192.996 60.8121 193.299 60.6068C193.603 60.4014 193.755 60.0975 193.755 59.695V59.6211C193.755 58.8408 193.509 58.237 193.016 57.8099C192.531 57.3828 191.841 57.1692 190.946 57.1692C190.002 57.1692 189.25 57.3787 188.691 57.7976C188.133 58.2083 187.763 58.7258 187.583 59.35L182.728 58.9558C182.974 57.8058 183.459 56.8119 184.182 55.9741C184.905 55.128 185.837 54.4791 186.979 54.0274C188.129 53.5674 189.459 53.3374 190.971 53.3374C192.022 53.3374 193.028 53.4606 193.989 53.707C194.959 53.9534 195.817 54.3354 196.565 54.8529C197.32 55.3704 197.916 56.0357 198.351 56.8489C198.786 57.6538 199.004 58.619 199.004 59.7443V72.5089H194.026V69.8845H193.879C193.575 70.4759 193.168 70.9975 192.659 71.4493C192.15 71.8928 191.538 72.2419 190.823 72.4965C190.108 72.743 189.283 72.8662 188.346 72.8662ZM189.85 69.2438C190.622 69.2438 191.303 69.0918 191.895 68.7879C192.486 68.4758 192.95 68.0569 193.287 67.5312C193.624 67.0055 193.792 66.41 193.792 65.7446V63.7363C193.628 63.8431 193.402 63.9417 193.115 64.032C192.835 64.1142 192.519 64.1922 192.166 64.2661C191.813 64.3318 191.46 64.3934 191.106 64.4509C190.753 64.5002 190.433 64.5454 190.145 64.5865C189.529 64.6768 188.991 64.8206 188.531 65.0177C188.071 65.2148 187.714 65.4818 187.459 65.8186C187.205 66.1471 187.077 66.5578 187.077 67.0507C187.077 67.7653 187.336 68.3115 187.854 68.6893C188.379 69.059 189.045 69.2438 189.85 69.2438Z" fill="white"/>
<path d="M166.615 61.5678V72.5089H161.367V53.5838H166.369V56.9228H166.591C167.01 55.8221 167.712 54.9514 168.698 54.3108C169.683 53.6619 170.878 53.3374 172.283 53.3374C173.597 53.3374 174.743 53.6249 175.721 54.1999C176.698 54.7748 177.458 55.5962 178 56.6641C178.542 57.7237 178.813 58.9886 178.813 60.4589V72.5089H173.564V61.3953C173.573 60.2372 173.277 59.3336 172.677 58.6847C172.078 58.0276 171.252 57.699 170.201 57.699C169.494 57.699 168.87 57.851 168.328 58.1549C167.794 58.4588 167.375 58.9024 167.071 59.4856C166.776 60.0606 166.624 60.7546 166.615 61.5678Z" fill="white"/>
<path d="M146.637 72.8662C145.43 72.8662 144.353 72.6567 143.409 72.2378C142.464 71.8107 141.717 71.1823 141.166 70.3527C140.624 69.5149 140.353 68.4717 140.353 67.2232C140.353 66.1718 140.546 65.2888 140.932 64.5741C141.318 63.8595 141.844 63.2845 142.509 62.8492C143.175 62.4139 143.93 62.0853 144.777 61.8635C145.631 61.6417 146.526 61.4857 147.462 61.3953C148.563 61.2803 149.45 61.1735 150.124 61.075C150.797 60.9682 151.286 60.8121 151.59 60.6068C151.894 60.4014 152.046 60.0975 152.046 59.695V59.6211C152.046 58.8408 151.799 58.237 151.307 57.8099C150.822 57.3828 150.132 57.1692 149.237 57.1692C148.292 57.1692 147.541 57.3787 146.982 57.7976C146.423 58.2083 146.054 58.7258 145.873 59.35L141.019 58.9558C141.265 57.8058 141.75 56.8119 142.472 55.9741C143.195 55.128 144.128 54.4791 145.269 54.0274C146.419 53.5674 147.75 53.3374 149.261 53.3374C150.313 53.3374 151.319 53.4606 152.28 53.707C153.249 53.9534 154.108 54.3354 154.855 54.8529C155.611 55.3704 156.206 56.0357 156.642 56.8489C157.077 57.6538 157.295 58.619 157.295 59.7443V72.5089H152.317V69.8845H152.169C151.865 70.4759 151.459 70.9975 150.949 71.4493C150.44 71.8928 149.828 72.2419 149.113 72.4965C148.399 72.743 147.573 72.8662 146.637 72.8662ZM148.14 69.2438C148.912 69.2438 149.594 69.0918 150.185 68.7879C150.777 68.4758 151.241 68.0569 151.578 67.5312C151.914 67.0055 152.083 66.41 152.083 65.7446V63.7363C151.919 63.8431 151.693 63.9417 151.405 64.032C151.126 64.1142 150.81 64.1922 150.456 64.2661C150.103 64.3318 149.75 64.3934 149.397 64.4509C149.044 64.5002 148.723 64.5454 148.436 64.5865C147.82 64.6768 147.282 64.8206 146.822 65.0177C146.362 65.2148 146.004 65.4818 145.75 65.8186C145.495 66.1471 145.368 66.5578 145.368 67.0507C145.368 67.7653 145.627 68.3115 146.144 68.6893C146.67 69.059 147.335 69.2438 148.14 69.2438Z" fill="white"/>
<path d="M109.591 47.2754H116.17L123.119 64.2291H123.415L130.364 47.2754H136.943V72.5088H131.769V56.0849H131.559L125.029 72.3856H121.505L114.975 56.0233H114.766V72.5088H109.591V47.2754Z" fill="white"/>
<path d="M196.244 30.5928C194.33 30.5928 192.675 30.1862 191.279 29.3731C189.891 28.5517 188.819 27.4099 188.063 25.9478C187.308 24.4775 186.93 22.7731 186.93 20.8346C186.93 18.8797 187.308 17.1712 188.063 15.7091C188.819 14.2388 189.891 13.097 191.279 12.2839C192.675 11.4625 194.33 11.0518 196.244 11.0518C198.158 11.0518 199.809 11.4625 201.197 12.2839C202.594 13.097 203.67 14.2388 204.425 15.7091C205.181 17.1712 205.559 18.8797 205.559 20.8346C205.559 22.7731 205.181 24.4775 204.425 25.9478C203.67 27.4099 202.594 28.5517 201.197 29.3731C199.809 30.1862 198.158 30.5928 196.244 30.5928ZM196.269 26.5269C197.14 26.5269 197.867 26.2805 198.45 25.7877C199.033 25.2866 199.472 24.6048 199.768 23.7424C200.072 22.8799 200.224 21.8983 200.224 20.7977C200.224 19.697 200.072 18.7154 199.768 17.8529C199.472 16.9905 199.033 16.3087 198.45 15.8077C197.867 15.3066 197.14 15.0561 196.269 15.0561C195.39 15.0561 194.651 15.3066 194.051 15.8077C193.46 16.3087 193.012 16.9905 192.708 17.8529C192.413 18.7154 192.265 19.697 192.265 20.7977C192.265 21.8983 192.413 22.8799 192.708 23.7424C193.012 24.6048 193.46 25.2866 194.051 25.7877C194.651 26.2805 195.39 26.5269 196.269 26.5269Z" fill="white"/>
<path d="M175.582 30.5928C173.635 30.5928 171.96 30.1986 170.555 29.41C169.159 28.6133 168.083 27.488 167.327 26.0341C166.571 24.572 166.193 22.8429 166.193 20.8469C166.193 18.9002 166.571 17.1917 167.327 15.7214C168.083 14.2511 169.146 13.1053 170.518 12.2839C171.898 11.4625 173.516 11.0518 175.372 11.0518C176.621 11.0518 177.783 11.253 178.859 11.6555C179.944 12.0498 180.888 12.6453 181.693 13.442C182.506 14.2388 183.139 15.2409 183.591 16.4483C184.042 17.6476 184.268 19.0522 184.268 20.6621V22.1037H168.288V18.8509H179.328C179.328 18.0953 179.163 17.4258 178.835 16.8426C178.506 16.2594 178.05 15.8036 177.467 15.475C176.892 15.1382 176.223 14.9698 175.459 14.9698C174.662 14.9698 173.956 15.1546 173.34 15.5243C172.732 15.8857 172.255 16.3744 171.91 16.9905C171.565 17.5983 171.389 18.276 171.38 19.0234V22.116C171.38 23.0524 171.553 23.8615 171.898 24.5432C172.251 25.225 172.748 25.7507 173.389 26.1203C174.03 26.49 174.789 26.6748 175.668 26.6748C176.251 26.6748 176.785 26.5926 177.27 26.4283C177.755 26.2641 178.169 26.0176 178.514 25.6891C178.859 25.3605 179.122 24.958 179.303 24.4816L184.157 24.802C183.911 25.9684 183.406 26.9869 182.642 27.8576C181.886 28.7201 180.909 29.3936 179.709 29.8782C178.518 30.3546 177.143 30.5928 175.582 30.5928Z" fill="white"/>
<path d="M151.873 30.5314C150.436 30.5314 149.134 30.1618 147.967 29.4225C146.809 28.675 145.889 27.5785 145.208 26.1328C144.534 24.6789 144.197 22.8965 144.197 20.7855C144.197 18.617 144.546 16.814 145.245 15.3766C145.943 13.9309 146.871 12.8508 148.029 12.1362C149.195 11.4133 150.473 11.0519 151.861 11.0519C152.921 11.0519 153.804 11.2326 154.51 11.594C155.225 11.9472 155.8 12.3908 156.235 12.9247C156.678 13.4504 157.015 13.9679 157.245 14.4771H157.405V4.98999H162.642V30.2234H157.467V27.1924H157.245C156.999 27.7181 156.65 28.2397 156.198 28.7572C155.754 29.2664 155.175 29.6895 154.461 30.0262C153.754 30.363 152.892 30.5314 151.873 30.5314ZM153.537 26.3546C154.383 26.3546 155.097 26.1246 155.68 25.6646C156.272 25.1964 156.724 24.5434 157.036 23.7056C157.356 22.8677 157.516 21.8862 157.516 20.7609C157.516 19.6355 157.36 18.6581 157.048 17.8285C156.736 16.9988 156.284 16.3582 155.693 15.9064C155.101 15.4546 154.383 15.2287 153.537 15.2287C152.674 15.2287 151.947 15.4628 151.356 15.931C150.764 16.3992 150.317 17.0481 150.013 17.8777C149.709 18.7074 149.557 19.6684 149.557 20.7609C149.557 21.8615 149.709 22.8349 150.013 23.6809C150.325 24.5188 150.773 25.1759 151.356 25.6523C151.947 26.1205 152.674 26.3546 153.537 26.3546Z" fill="white"/>
<path d="M135.446 30.2233V11.2982H140.695V30.2233H135.446ZM138.083 8.85869C137.303 8.85869 136.633 8.59994 136.075 8.08246C135.524 7.55677 135.249 6.9284 135.249 6.19735C135.249 5.47452 135.524 4.85436 136.075 4.33688C136.633 3.81119 137.303 3.54834 138.083 3.54834C138.863 3.54834 139.529 3.81119 140.079 4.33688C140.638 4.85436 140.917 5.47452 140.917 6.19735C140.917 6.9284 140.638 7.55677 140.079 8.08246C139.529 8.59994 138.863 8.85869 138.083 8.85869Z" fill="white"/>
<path d="M114.15 4.98999L120.248 24.1614H120.483L126.594 4.98999H132.508L123.809 30.2234H116.934L108.223 4.98999H114.15Z" fill="white"/>
<rect x="6.29675" y="12.0212" width="67.5472" height="55.2399" fill="#9999FF"/>
<path d="M28.3131 34.5791C27.9815 33.5513 27.6832 32.5567 27.3516 31.529C27.0201 30.5012 26.7217 29.5398 26.4565 28.5783C26.1913 27.65 25.9592 26.788 25.7271 25.9923H25.6608C25.3624 27.4179 24.9977 28.8435 24.5336 30.2691C24.0363 31.8605 23.539 33.5182 23.0085 35.1758C22.5775 36.8667 22.0471 38.4249 21.5498 39.8173H29.9707C29.7718 39.1211 29.5066 38.2923 29.2082 37.4303C28.9098 36.5351 28.6115 35.5737 28.3131 34.5791ZM56.7588 33.6176C54.9353 33.5182 53.2113 34.4796 52.3494 36.1373C51.9515 36.8998 51.7194 37.6955 51.62 38.5243H58.612C59.474 38.5243 60.104 38.5243 60.5018 38.4912C60.767 38.458 61.0322 38.3917 61.2643 38.226V37.8944C61.2643 37.4634 61.1947 37.0656 61.0621 36.6678C60.472 34.8112 58.7148 33.5513 56.7588 33.6176ZM65.4781 0H14.0902C6.29916 0 0 6.29916 0 14.0902V63.4889C0 71.28 6.29916 77.5792 14.0902 77.5792H65.4781C73.2692 77.5792 79.5684 71.28 79.5684 63.4889V14.0902C79.5684 6.29916 73.2692 0 65.4781 0ZM42.1381 54.7397H35.209C34.9769 54.7729 34.7449 54.6038 34.6785 54.375L31.96 46.4182H19.6269L17.1072 54.2424C17.0409 54.5408 16.7757 54.7397 16.4773 54.7066H10.2444C9.87974 54.7066 9.78028 54.5076 9.87974 54.1098L20.5552 23.5058C20.6546 23.1743 20.7541 22.8759 20.8867 22.4781C21.0193 21.7818 21.0856 21.0525 21.0856 20.3231C21.0525 20.1573 21.1851 19.9916 21.3508 19.9584H29.9376C30.1697 19.9584 30.3354 20.0579 30.3686 20.2236L42.4696 54.2059C42.5691 54.5706 42.4729 54.7397 42.1381 54.7397ZM68.1669 41.5082C68.0973 42.1348 68.0641 42.6022 68.031 42.9006C67.9978 43.1327 67.8022 43.3316 67.5668 43.3316C67.3679 43.3316 67.0032 43.3648 66.4727 43.4012C65.9456 43.4675 65.3124 43.4974 64.5532 43.4974C63.7906 43.4974 62.9916 43.3648 62.1329 43.3648H51.6233C51.7526 44.3925 52.0874 45.4203 52.651 46.3154C53.2511 47.2139 54.08 47.9068 55.0679 48.3079C56.3941 48.8716 57.8561 49.1699 59.3149 49.1368C60.4753 49.1003 61.6323 49.0042 62.7595 48.7721C63.7906 48.6428 64.7819 48.3776 65.7135 48.0096C65.8793 47.8803 65.9787 47.9433 65.9787 48.2748V53.3506C65.9787 53.4799 65.9456 53.6158 65.9091 53.7451C65.8395 53.8446 65.7765 53.9142 65.6804 53.9772C64.6195 54.4413 63.5254 54.7729 62.365 54.9718C60.8035 55.2702 59.2486 55.4028 57.6572 55.3696C55.1342 55.3696 53.0157 54.9718 51.2918 54.2093C49.6672 53.5097 48.2383 52.4157 47.1111 51.0597C46.0535 49.7667 45.2877 48.3079 44.8235 46.7166C44.3594 45.155 44.1306 43.5305 44.1306 41.8729C44.1306 40.0859 44.3958 38.3254 44.9594 36.6014C45.4899 34.9438 46.3187 33.4187 47.446 32.0594C48.54 30.7333 49.896 29.6724 51.4542 28.9098C53.0157 28.1473 54.869 27.8821 56.9908 27.8821C58.7513 27.8489 60.5051 28.1805 62.1296 28.9098C63.4889 29.5066 64.6825 30.4017 65.6107 31.5621C66.4727 32.6893 67.169 33.9492 67.6033 35.3416C68.031 36.6678 68.2299 38.027 68.2299 39.3863C68.2299 40.182 68.1967 40.8782 68.1669 41.5082Z" fill="#00005B"/>
</svg>
