<svg xmlns="http://www.w3.org/2000/svg" xmlns:xlink="http://www.w3.org/1999/xlink" version="1.1" id="adobe-aftereffects-file" x="0px" y="0px" viewBox="0 0 80.4 98.4" style="enable-background:new 0 0 80.4 98.4;" xml:space="preserve">
<style type="text/css">
	.st0{fill:#0d151f;}
	.st1{fill:#d4af37;}
	.st2{fill:#FFFFFF;}
</style>
<path class="st0" d="M78.8,25.6V87c0,5.2-4.2,9.4-9.4,9.4H11.1c-5.2,0-9.4-4.2-9.4-9.4V11.5c0-5.2,4.2-9.4,9.4-9.4h44.1  c2.5,0,4.9,1,6.7,2.7L76,18.9C77.8,20.7,78.8,23.1,78.8,25.6z" fill="#000000"/>
<path class="st1" d="M55.8,4.1c1.5,0,3,0.6,4.1,1.7l14.7,14.7c1.1,1.1,1.7,2.5,1.7,4.1v64c0,3.2-2.6,5.7-5.7,5.7H9.8  c-3.2,0-5.7-2.6-5.7-5.7V9.8c0-3.2,2.6-5.7,5.7-5.7H55.8 M55.8,0h-46C4.4,0,0,4.4,0,9.8v78.8c0,5.5,4.4,9.8,9.8,9.8h60.7  c5.5,0,9.8-4.4,9.8-9.8v-64c0-2.6-1-5.1-2.9-7L62.8,2.9C60.9,1,58.4,0,55.8,0L55.8,0z" fill="#000000"/>
<path class="st1" d="M34.7,45.1h-11l-2.8,7.8c0,0.3-0.2,0.4-0.5,0.4h-5.2c-0.3,0-0.5-0.2-0.4-0.5l10-29.2c0.3-0.9,0.4-1.8,0.4-2.7  c0-0.2,0.1-0.3,0.3-0.3h7.2c0.2,0,0.3,0.1,0.4,0.2l11.2,32.1c0.1,0.3,0,0.5-0.2,0.5h-5.8c-0.2,0-0.4-0.1-0.5-0.3L34.7,45.1z   M24.9,39.4h8.6c-0.2-0.5-4.1-12.8-4.3-13.8h0L24.9,39.4z M60,42.9h-8.9c0,2.1,0.6,3.7,1.8,4.9c1.1,1.2,2.8,1.8,5.1,1.8  c1.9,0,3.9-0.3,5.7-1.1c0.2-0.1,0.3-0.1,0.3,0.2v3.6c0,0.2-0.1,0.5-0.3,0.6c-1.8,0.9-4.3,1.3-7,1.3c-4,0-6.9-1.1-8.8-3.4  c-1.9-2.3-2.8-5.2-2.8-8.6c0-3.6,1-6.6,2.9-9c2-2.4,4.6-3.6,8-3.6c3.2,0,5.6,1,7.2,3c1.6,2,2.4,4.4,2.4,7c0,0.9,0,1.9-0.2,2.8  c0,0.2-0.2,0.4-0.4,0.4C63.4,42.9,61.7,42.9,60,42.9z M51.1,39.1h6.4c0.8,0,1.6,0,2.4-0.1c0-0.2,0-0.5,0-0.7c0-1.2-0.3-2.3-1-3.3  c-0.7-1-1.7-1.5-3.2-1.5c-1.3-0.1-2.5,0.5-3.3,1.6C51.7,36.3,51.2,37.7,51.1,39.1L51.1,39.1z" fill="#000000"/>
<path class="st2" d="M31.3,80.4h-4.6l-1.2,3.9c0,0.1-0.1,0.2-0.2,0.2l0,0h-2.1c-0.1,0-0.2-0.1-0.2-0.2L27.2,71  c0.1-0.4,0.2-0.8,0.2-1.2c0-0.1,0-0.1,0.1-0.1h3c0.1,0,0.1,0,0.2,0.1l4.7,14.4c0,0.1,0,0.2-0.1,0.2h-2.4c-0.1,0-0.2,0-0.2-0.1  L31.3,80.4z M27.2,77.9h3.6c-0.1,0-1.7-5.5-1.8-5.9l0,0C28.8,72.8,28.2,74.9,27.2,77.9z M45.1,82.2l-0.3,2.1c0,0.1-0.1,0.2-0.2,0.2  l0,0h-7.5c-0.1,0-0.2,0-0.2-0.2V69.9c0-0.1,0-0.2,0.1-0.2h0h7.6c0.1,0,0.2,0,0.2,0.2l0,0l0.2,2.1c0,0.1,0,0.2-0.2,0.2h-5.6v4.1h4.8  c0.1,0,0.2,0,0.2,0.1c0,0,0,0,0,0v2.1c0,0.1,0,0.2-0.2,0.2h-4.8V82H45C45.1,82,45.1,82.1,45.1,82.2z M46.8,84.3V69.9  c0-0.1,0-0.2,0.1-0.2c0.9,0,2.3,0,4,0c2,0,3.4,0.5,4.3,1.4c0.9,0.9,1.4,2.1,1.4,3.4c0,1.6-0.6,3-1.7,3.9c-1.3,0.9-2.8,1.3-4.3,1.2  h-0.7c-0.3,0-0.7,0-0.7,0v4.8c0,0.1,0,0.2-0.2,0.2h-2.1C46.8,84.5,46.8,84.5,46.8,84.3C46.8,84.4,46.8,84.4,46.8,84.3z M49.2,72.2  v4.9c0.5,0,0.9,0,1.5,0c0.8,0,1.6-0.2,2.3-0.7c0.6-0.5,0.9-0.9,0.9-2c0-1.8-2.1-2.3-3-2.3C50.1,72.2,49.6,72.1,49.2,72.2z" fill="#000000"/>
</svg>